<?xml version="1.0" encoding="utf-8"?>
<!-- Generator: Adobe Illustrator 26.5.0, SVG Export Plug-In . SVG Version: 6.00 Build 0)  -->
<svg version="1.1" id="Layer_1" xmlns="http://www.w3.org/2000/svg" xmlns:xlink="http://www.w3.org/1999/xlink" x="0px" y="0px"
	 viewBox="0 0 151 72.7" style="enable-background:new 0 0 151 72.7;" xml:space="preserve">
<style type="text/css">
	.st0{fill:#183F80;}
	.st1{fill:none;stroke:#000000;stroke-linecap:round;stroke-linejoin:round;}
	.st2{fill:#999999;}
	.st3{fill:#FFFFFF;}
	.st4{fill:#FFFF00;}
	.st5{fill:none;stroke:#000000;stroke-linejoin:round;}
</style>
<path class="st0" d="M130.4,18l16.9,16.9c0.8,0.8,0.8,2,0,2.8l0,0l-33.8,33.8c-0.8,0.8-2,0.8-2.8,0l0,0L76.8,37.8
	c-0.8-0.8-0.8-2,0-2.8l0,0l33.8-33.8c0.8-0.8,2-0.8,2.8,0l0,0L130.4,18z"/>
<path class="st1" d="M130.4,18l16.9,16.9c0.8,0.8,0.8,2,0,2.8l0,0l-33.8,33.8c-0.8,0.8-2,0.8-2.8,0l0,0L76.8,37.8
	c-0.8-0.8-0.8-2,0-2.8l0,0l33.8-33.8c0.8-0.8,2-0.8,2.8,0l0,0L130.4,18z"/>
<path class="st2" d="M93.7,18l16.9,16.9c0.8,0.8,0.8,2,0,2.8l0,0L76.8,71.6c-0.8,0.8-2,0.8-2.8,0l0,0L40.1,37.8
	c-0.8-0.8-0.8-2,0-2.8l0,0L73.9,1.1c0.8-0.8,2-0.8,2.8,0l0,0L93.7,18z"/>
<path class="st1" d="M93.7,18l16.9,16.9c0.8,0.8,0.8,2,0,2.8l0,0L76.8,71.6c-0.8,0.8-2,0.8-2.8,0l0,0L40.1,37.8
	c-0.8-0.8-0.8-2,0-2.8l0,0L73.9,1.1c0.8-0.8,2-0.8,2.8,0l0,0L93.7,18z"/>
<path class="st3" d="M57,18l16.9,16.9c0.8,0.8,0.8,2,0,2.8l0,0L40.1,71.6c-0.8,0.8-2,0.8-2.8,0L3.4,37.8c-0.8-0.8-0.8-2,0-2.8l0,0
	L37.3,1.1c0.8-0.8,2-0.8,2.8,0L57,18z"/>
<path class="st1" d="M57,18l16.9,16.9c0.8,0.8,0.8,2,0,2.8l0,0L40.1,71.6c-0.8,0.8-2,0.8-2.8,0L3.4,37.8c-0.8-0.8-0.8-2,0-2.8l0,0
	L37.3,1.1c0.8-0.8,2-0.8,2.8,0L57,18z"/>
<path class="st4" d="M3.1,34.4l-2.6,2.8l19.6,19.3l18.4-18.2l18.7,18.6l36.7-36.3l18.6,18.3l18.1-18l17.1,17l2.8-2.8l-19.9-19.6
	c0,0-18.2,17.9-18.2,18S93.7,15.1,93.8,15.1S57.2,51.6,57.2,51.6L38.5,33.2L20.2,51.1L3.1,34.4z"/>
<path class="st5" d="M3.1,34.4l-2.6,2.8l19.6,19.3l18.4-18.2l18.7,18.6l36.7-36.3l18.6,18.3l18.1-18l17.1,17l2.8-2.8l-19.9-19.6
	c0,0-18.2,17.9-18.2,18S93.7,15.1,93.8,15.1S57.2,51.6,57.2,51.6L38.5,33.2L20.2,51.1L3.1,34.4z"/>
</svg>
