<?xml version="1.0" encoding="utf-8"?>
<!-- Generator: Adobe Illustrator 19.1.0, SVG Export Plug-In . SVG Version: 6.00 Build 0)  -->
<svg version="1.1" id="Layer_1" xmlns="http://www.w3.org/2000/svg" xmlns:xlink="http://www.w3.org/1999/xlink" x="0px" y="0px"
	 viewBox="-335 221.8 170.8 152.5" style="enable-background:new -335 221.8 170.8 152.5;" xml:space="preserve">
<style type="text/css">
	.st0{fill:none;stroke:#1AADDC;stroke-width:3;stroke-linecap:round;stroke-linejoin:round;stroke-miterlimit:10;}
	.st1{fill:#FFFFFF;stroke:#1AADDC;stroke-width:3;stroke-linecap:round;stroke-linejoin:round;stroke-miterlimit:10;}
	.st2{opacity:0.1;fill:#1AADDC;enable-background:new    ;}
	
		.st3{fill:#FFFFFF;stroke:#1AADDC;stroke-width:3;stroke-linecap:round;stroke-linejoin:round;stroke-miterlimit:10;stroke-dasharray:2,2;}
</style>
<line class="st0" x1="-202" y1="308.4" x2="-238.2" y2="269.2"/>
<line class="st0" x1="-190.1" y1="241.9" x2="-170.1" y2="296.6"/>
<line class="st0" x1="-259" y1="226.9" x2="-238.2" y2="269.2"/>
<line class="st0" x1="-259" y1="226.9" x2="-190.1" y2="241.9"/>
<line class="st0" x1="-170.1" y1="296.6" x2="-238.2" y2="269.2"/>
<line class="st0" x1="-238.2" y1="269.2" x2="-211.2" y2="367.6"/>
<line class="st0" x1="-252.1" y1="356" x2="-325.5" y2="336"/>
<line class="st0" x1="-325.5" y1="336" x2="-313.1" y2="250.9"/>
<line class="st0" x1="-313.1" y1="250.9" x2="-259" y2="226.9"/>
<line class="st0" x1="-238.2" y1="269.2" x2="-281.1" y2="305.1"/>
<line class="st0" x1="-281.1" y1="305.1" x2="-313.1" y2="250.9"/>
<line class="st0" x1="-281.1" y1="305.1" x2="-325.5" y2="336"/>
<line class="st0" x1="-281.1" y1="305.1" x2="-211.2" y2="367.6"/>
<line class="st0" x1="-200" y1="308.4" x2="-211.2" y2="367.6"/>
<line class="st0" x1="-211.2" y1="367.6" x2="-170.1" y2="296.6"/>
<line class="st0" x1="-211.2" y1="367.6" x2="-252.1" y2="356"/>
<line class="st0" x1="-202" y1="308.4" x2="-170.1" y2="295.1"/>
<circle class="st1" cx="-259" cy="226.9" r="3.2"/>
<circle class="st2" cx="-259" cy="226.9" r="3.2"/>
<circle class="st1" cx="-238.2" cy="270.3" r="7.3"/>
<circle class="st3" cx="-281.1" cy="305.1" r="6.2"/>
<circle class="st3" cx="-313.1" cy="250.9" r="6.2"/>
<circle class="st1" cx="-325.5" cy="336" r="6.2"/>
<circle class="st1" cx="-211.2" cy="367.6" r="4.7"/>
<circle class="st1" cx="-200" cy="308.4" r="6.2"/>
<circle class="st2" cx="-200" cy="308.4" r="6.2"/>
<circle class="st1" cx="-171.8" cy="296.6" r="4.4"/>
<circle class="st3" cx="-190.1" cy="241.9" r="6.2"/>
</svg>
