<?xml version="1.0" encoding="utf-8"?>
<!-- Generator: Adobe Illustrator 18.1.1, SVG Export Plug-In . SVG Version: 6.00 Build 0)  -->
<!DOCTYPE svg PUBLIC "-//W3C//DTD SVG 1.1//EN" "http://www.w3.org/Graphics/SVG/1.1/DTD/svg11.dtd">
<svg version="1.1" id="Layer_1" xmlns="http://www.w3.org/2000/svg" xmlns:xlink="http://www.w3.org/1999/xlink" x="0px" y="0px"
	 viewBox="0 0 35.9 35.9" enable-background="new 0 0 35.9 35.9" xml:space="preserve">
<g>
	<path fill="#FFFFFF" d="M29.8,14.8c-0.1,2.5-0.6,4.8-1.8,6.9c-0.2,0.4-0.2,0.6,0.1,0.9c2.4,2.4,4.8,4.8,7.2,7.2
		c0.1,0.1,0.2,0.2,0.3,0.3c0.6,0.6,0.6,0.9,0,1.5c-0.6,0.7-1.3,1.3-1.9,2c-0.6,0.6-1.2,1.2-1.8,1.8c-0.6,0.6-1.1,0.6-1.7,0
		c-1.9-1.9-3.8-3.9-5.6-5.8c-0.6-0.6-1.2-1.2-1.8-1.8c-0.3-0.3-0.5-0.3-0.8-0.1c-2.3,1.3-4.7,2-7.3,1.9c-4.1-0.1-7.5-1.6-10.4-4.6
		c-2.1-2.1-3.4-4.6-4-7.6C-1.3,8.7,4.7,2.1,11.1,0.5c8.6-2.2,16.1,3.4,18,10.5C29.5,12.2,29.5,13.5,29.8,14.8z M23.9,14.9
		c0-5-4-9.1-8.9-9.1c-5-0.1-9.1,4.1-9.2,8.9C5.6,19.8,10,24,14.9,24C19.9,23.9,23.9,20,23.9,14.9z"/>
</g>
</svg>
