<?xml version="1.0" encoding="utf-8"?>
<!-- Generator: Adobe Illustrator 19.1.0, SVG Export Plug-In . SVG Version: 6.00 Build 0)  -->
<svg version="1.1" id="Layer_1" xmlns="http://www.w3.org/2000/svg" xmlns:xlink="http://www.w3.org/1999/xlink" x="0px" y="0px"
	 viewBox="0 0 170.8 152.5" style="enable-background:new 0 0 170.8 152.5;" xml:space="preserve">
<style type="text/css">
	.st0{opacity:0.1;fill-rule:evenodd;clip-rule:evenodd;fill:#1AADDC;}
	.st1{fill:none;stroke:#1AADDC;stroke-linecap:round;stroke-linejoin:round;stroke-miterlimit:10;}
	.st2{fill:#1AADDC;}
	.st3{fill-rule:evenodd;clip-rule:evenodd;fill:none;stroke:#1AADDC;stroke-miterlimit:10;}
	
		.st4{fill-rule:evenodd;clip-rule:evenodd;fill:none;stroke:#1AADDC;stroke-linecap:round;stroke-linejoin:round;stroke-miterlimit:10;}
</style>
<g>
	<g>
		<rect x="1.2" y="1.3" class="st0" width="99.8" height="2.6"/>
		<rect x="1.2" y="1.3" class="st1" width="99.8" height="59.3"/>
		<circle class="st2" cx="3.5" cy="2.7" r="0.4"/>
		<circle class="st2" cx="6" cy="2.7" r="0.4"/>
		<circle class="st2" cx="8.4" cy="2.7" r="0.4"/>
		<line class="st1" x1="1.2" y1="3.9" x2="101" y2="3.9"/>
		<rect x="71" y="8" class="st1" width="25.4" height="25.4"/>
		<path id="USER_6_" class="st0" d="M5.7,60.6c0.5-3.4,2.2-9.1,7.4-11.6c4.9-2.4,3-0.5,8.9-2.9c6-2.5,7.4-3.3,7.4-3.3l0.1-5.7
			c0,0-2.2-1.7-2.9-7.1c-1.4,0.4-1.9-1.6-1.9-2.9c-0.1-1.3-0.8-5.2,0.9-4.8c-0.3-2.6-0.6-5-0.5-6.2c0.4-4.4,4.7-9,11.2-9.3
			C43.9,7,46.9,11.6,47.4,16c0.1,1.3-0.1,3.6-0.5,6.2c1.7-0.3,1,3.6,0.9,4.8c-0.1,1.3-0.5,3.3-1.9,2.9c-0.7,5.3-2.9,7-2.9,7l0.1,5.7
			c0,0,1.4,0.8,7.4,3.3c6,2.5,4.1,0.6,8.9,3c5.1,2.5,6.8,8,7.4,11.4"/>
		<path id="USER_2_" class="st3" d="M5.7,60.6c0.5-3.4,2.2-9.1,7.4-11.6c4.9-2.4,3-0.5,8.9-2.9c6-2.5,7.4-3.3,7.4-3.3l0.1-5.7
			c0,0-2.2-1.7-2.9-7.1c-1.4,0.4-1.9-1.6-1.9-2.9c-0.1-1.3-0.8-5.2,0.9-4.8c-0.3-2.6-0.6-5-0.5-6.2c0.4-4.4,4.7-9,11.2-9.3
			C43.9,7,46.9,11.6,47.4,16c0.1,1.3-0.1,3.6-0.5,6.2c1.7-0.3,1,3.6,0.9,4.8c-0.1,1.3-0.5,3.3-1.9,2.9c-0.7,5.3-2.9,7-2.9,7l0.1,5.7
			c0,0,1.4,0.8,7.4,3.3c6,2.5,4.1,0.6,8.9,3c5.1,2.5,6.8,8,7.4,11.4"/>
		<path id="USER_1_" class="st4" d="M72.4,33.4c0.2-1.2,0.8-3.3,2.7-4.3c1.8-0.9,1.1-0.2,3.3-1.1c2.2-0.9,2.7-1.2,2.7-1.2l0-2.1
			c0,0-0.8-0.6-1.1-2.6c-0.5,0.1-0.7-0.6-0.7-1.1c0-0.5-0.3-1.9,0.3-1.8c-0.1-1-0.2-1.8-0.2-2.3c0.2-1.6,1.7-3.3,4.1-3.4
			c2.8,0.1,3.9,1.8,4.1,3.4c0,0.5-0.1,1.3-0.2,2.3c0.6-0.1,0.4,1.3,0.3,1.8c0,0.5-0.2,1.2-0.7,1.1c-0.3,2-1.1,2.6-1.1,2.6l0,2.1
			c0,0,0.5,0.3,2.7,1.2c2.2,0.9,1.5,0.2,3.3,1.1c1.9,0.9,2.5,3,2.7,4.2"/>
	</g>
	<g>
		<rect x="69.3" y="91.1" class="st0" width="99.8" height="2.6"/>
		<rect x="69.3" y="91.1" class="st1" width="99.8" height="59.3"/>
		<circle class="st2" cx="71.6" cy="92.4" r="0.4"/>
		<circle class="st2" cx="74" cy="92.4" r="0.4"/>
		<circle class="st2" cx="76.5" cy="92.4" r="0.4"/>
		<line class="st1" x1="69.3" y1="93.6" x2="169.1" y2="93.6"/>
		<rect x="139" y="97.8" class="st1" width="25.4" height="25.4"/>
		<path id="USER_4_" class="st3" d="M73.8,150.4c0.5-3.4,2.2-9.1,7.4-11.6c4.9-2.4,3-0.5,8.9-2.9c6-2.5,7.4-3.3,7.4-3.3l0.1-5.7
			c0,0-2.2-1.7-2.9-7.1c-1.4,0.4-1.9-1.6-1.9-2.9c-0.1-1.3-0.8-5.2,0.9-4.8c-0.3-2.6-0.6-5-0.5-6.2c0.4-4.4,4.7-9,11.2-9.3
			c7.7,0.3,10.7,4.9,11.1,9.3c0.1,1.3-0.1,3.6-0.5,6.2c1.7-0.3,1,3.6,0.9,4.8c-0.1,1.3-0.5,3.3-1.9,2.9c-0.7,5.3-2.9,7-2.9,7
			l0.1,5.7c0,0,1.4,0.8,7.4,3.3c6,2.5,4.1,0.6,8.9,3c5.1,2.5,6.8,8,7.4,11.4"/>
		<path id="USER_3_" class="st4" d="M140.5,123.2c0.2-1.2,0.8-3.3,2.7-4.3c1.8-0.9,1.1-0.2,3.3-1.1c2.2-0.9,2.7-1.2,2.7-1.2l0-2.1
			c0,0-0.8-0.6-1.1-2.6c-0.5,0.1-0.7-0.6-0.7-1.1c0-0.5-0.3-1.9,0.3-1.8c-0.1-1-0.2-1.8-0.2-2.3c0.2-1.6,1.7-3.3,4.1-3.4
			c2.8,0.1,3.9,1.8,4.1,3.4c0,0.5-0.1,1.3-0.2,2.3c0.6-0.1,0.4,1.3,0.3,1.8c0,0.5-0.2,1.2-0.7,1.1c-0.3,2-1.1,2.6-1.1,2.6l0,2.1
			c0,0,0.5,0.3,2.7,1.2c2.2,0.9,1.5,0.2,3.3,1.1c1.9,0.9,2.5,3,2.7,4.2"/>
		<path id="USER_5_" class="st0" d="M140.4,123.4c0.2-1.2,0.8-3.4,2.7-4.3c1.8-0.9,1.1-0.2,3.3-1.1c2.2-0.9,2.7-1.2,2.7-1.2l0-2.1
			c0,0-0.8-0.6-1.1-2.6c-0.5,0.1-0.7-0.6-0.7-1.1c0-0.5-0.3-1.9,0.3-1.8c-0.1-1-0.2-1.8-0.2-2.3c0.2-1.6,1.7-3.3,4.1-3.4
			c2.8,0.1,4,1.8,4.1,3.4c0,0.5-0.1,1.3-0.2,2.3c0.6-0.1,0.4,1.3,0.3,1.8c0,0.5-0.2,1.2-0.7,1.1c-0.3,2-1.1,2.6-1.1,2.6l0,2.1
			c0,0,0.5,0.3,2.7,1.2c2.2,0.9,1.5,0.2,3.3,1.1c1.9,0.9,2.5,3,2.7,4.2"/>
	</g>
	<line class="st1" x1="85.1" y1="64.2" x2="85.1" y2="87.2"/>
</g>
</svg>
