<?xml version="1.0" encoding="utf-8"?>
<!-- Generator: Adobe Illustrator 19.1.0, SVG Export Plug-In . SVG Version: 6.00 Build 0)  -->
<svg version="1.1" id="Layer_1" xmlns="http://www.w3.org/2000/svg" xmlns:xlink="http://www.w3.org/1999/xlink" x="0px" y="0px"
	 viewBox="-335 221.8 170.8 152.5" style="enable-background:new -335 221.8 170.8 152.5;" xml:space="preserve">
<style type="text/css">
	
		.st0{fill:none;stroke:#1AADDC;stroke-width:3;stroke-linecap:round;stroke-linejoin:round;stroke-miterlimit:10;stroke-dasharray:2,2;}
	.st1{fill:none;stroke:#1AADDC;stroke-width:3;stroke-linecap:round;stroke-linejoin:round;stroke-miterlimit:10;}
	.st2{fill:#FFFFFF;stroke:#1AADDC;stroke-width:3;stroke-linecap:round;stroke-linejoin:round;stroke-miterlimit:10;}
	.st3{opacity:0.1;fill:#1AADDC;enable-background:new    ;}
	.st4{fill:#1AADDC;}
</style>
<g>
	<line class="st0" x1="-232.9" y1="306.3" x2="-240" y2="292.9"/>
	<line class="st1" x1="-217.6" y1="258.8" x2="-184.5" y2="310.7"/>
	<line class="st0" x1="-264.4" y1="243.7" x2="-250.3" y2="273.1"/>
	<line class="st1" x1="-264.4" y1="243.7" x2="-217.6" y2="258.8"/>
	<line class="st0" x1="-184.5" y1="310.7" x2="-233.8" y2="288.4"/>
	<line class="st0" x1="-248.2" y1="293.9" x2="-264.4" y2="351.4"/>
	<line class="st1" x1="-312.1" y1="329.4" x2="-300.8" y2="252.7"/>
	<line class="st1" x1="-300.8" y1="252.7" x2="-264.4" y2="243.7"/>
	<line class="st0" x1="-256.2" y1="282.8" x2="-280.6" y2="283.2"/>
	<line class="st1" x1="-280.6" y1="283.2" x2="-300.8" y2="252.7"/>
	<line class="st1" x1="-280.6" y1="283.2" x2="-312.1" y2="329.4"/>
	<line class="st1" x1="-280.6" y1="283.2" x2="-264.4" y2="351.4"/>
	<line class="st1" x1="-231.5" y1="306.3" x2="-264.4" y2="351.4"/>
	<line class="st1" x1="-264.4" y1="351.4" x2="-185.8" y2="310.7"/>
	<line class="st1" x1="-264.4" y1="351.4" x2="-312.1" y2="329.4"/>
	<line class="st1" x1="-232.9" y1="306.3" x2="-184.5" y2="309.6"/>
	<circle class="st2" cx="-264.4" cy="243.7" r="2.3"/>
	<circle class="st2" cx="-280.6" cy="283.2" r="4.4"/>
	<circle class="st3" cx="-280.6" cy="283.2" r="4.4"/>
	<circle class="st2" cx="-300.8" cy="252.7" r="4.4"/>
	<circle class="st2" cx="-312.1" cy="329.4" r="4.4"/>
	<circle class="st2" cx="-264.4" cy="351.4" r="3.3"/>
	<circle class="st3" cx="-264.4" cy="351.4" r="3.3"/>
	<circle class="st2" cx="-231.5" cy="306.3" r="4.4"/>
	<circle class="st2" cx="-185.8" cy="310.7" r="3.1"/>
	<line class="st0" x1="-217.6" y1="258.8" x2="-237.1" y2="275.6"/>
	<circle class="st2" cx="-217.6" cy="258.8" r="4.4"/>
	<circle class="st3" cx="-217.6" cy="258.8" r="4.4"/>
	<g>
		<circle class="st4" cx="-245.2" cy="283.3" r="5.1"/>
	</g>
</g>
</svg>
