<?xml version="1.0" encoding="utf-8"?>
<!-- Generator: Adobe Illustrator 19.1.0, SVG Export Plug-In . SVG Version: 6.00 Build 0)  -->
<svg version="1.1" id="Layer_1" xmlns="http://www.w3.org/2000/svg" xmlns:xlink="http://www.w3.org/1999/xlink" x="0px" y="0px"
	 viewBox="-335 221.8 170.8 152.5" style="enable-background:new -335 221.8 170.8 152.5;" xml:space="preserve">
<style type="text/css">
	.st0{fill:none;stroke:#1AADDC;stroke-linecap:round;stroke-linejoin:round;stroke-miterlimit:10;stroke-dasharray:2,2;}
	.st1{fill:none;stroke:#1AADDC;stroke-linecap:round;stroke-linejoin:round;stroke-miterlimit:10;}
	.st2{fill:#FFFFFF;stroke:#1AADDC;stroke-linecap:round;stroke-linejoin:round;stroke-miterlimit:10;}
	.st3{opacity:0.1;fill:#1AADDC;enable-background:new    ;}
	.st4{fill:#1AADDC;}
</style>
<g>
	<line class="st0" x1="-229.8" y1="306.5" x2="-236.9" y2="293.1"/>
	<line class="st1" x1="-214.5" y1="259" x2="-181.4" y2="310.9"/>
	<line class="st0" x1="-261.2" y1="243.9" x2="-247.2" y2="273.3"/>
	<line class="st1" x1="-261.2" y1="243.9" x2="-214.5" y2="259"/>
	<line class="st0" x1="-181.4" y1="310.9" x2="-230.7" y2="288.6"/>
	<line class="st0" x1="-245.1" y1="294.1" x2="-261.2" y2="351.6"/>
	<line class="st1" x1="-309" y1="329.6" x2="-297.6" y2="252.9"/>
	<line class="st1" x1="-297.6" y1="252.9" x2="-261.2" y2="243.9"/>
	<line class="st0" x1="-253.1" y1="283" x2="-277.5" y2="283.4"/>
	<line class="st1" x1="-277.5" y1="283.4" x2="-297.6" y2="252.9"/>
	<line class="st1" x1="-277.5" y1="283.4" x2="-309" y2="329.6"/>
	<line class="st1" x1="-277.5" y1="283.4" x2="-261.2" y2="351.6"/>
	<line class="st1" x1="-228.4" y1="306.5" x2="-261.2" y2="351.6"/>
	<line class="st1" x1="-261.2" y1="351.6" x2="-182.6" y2="310.9"/>
	<line class="st1" x1="-261.2" y1="351.6" x2="-309" y2="329.6"/>
	<line class="st1" x1="-229.8" y1="306.5" x2="-181.4" y2="309.8"/>
	<circle class="st2" cx="-261.2" cy="243.9" r="2.3"/>
	<circle class="st2" cx="-277.5" cy="283.4" r="4.4"/>
	<circle class="st3" cx="-277.5" cy="283.4" r="4.4"/>
	<circle class="st2" cx="-297.6" cy="252.9" r="4.4"/>
	<circle class="st2" cx="-309" cy="329.6" r="4.4"/>
	<circle class="st2" cx="-261.2" cy="351.6" r="3.3"/>
	<circle class="st3" cx="-261.2" cy="351.6" r="3.3"/>
	<circle class="st2" cx="-228.4" cy="306.5" r="4.4"/>
	<circle class="st2" cx="-182.6" cy="310.9" r="3.1"/>
	<line class="st0" x1="-214.5" y1="259" x2="-234" y2="275.8"/>
	<circle class="st2" cx="-214.5" cy="259" r="4.4"/>
	<circle class="st3" cx="-214.5" cy="259" r="4.4"/>
	<g>
		<circle class="st4" cx="-242.1" cy="283.5" r="5.1"/>
	</g>
</g>
</svg>
