<?xml version="1.0" encoding="utf-8"?>
<!-- Generator: Adobe Illustrator 19.1.0, SVG Export Plug-In . SVG Version: 6.00 Build 0)  -->
<svg version="1.1" id="Layer_1" xmlns="http://www.w3.org/2000/svg" xmlns:xlink="http://www.w3.org/1999/xlink" x="0px" y="0px"
	 viewBox="-335 221.8 170.8 152.5" style="enable-background:new -335 221.8 170.8 152.5;" xml:space="preserve">
<style type="text/css">
	.st0{fill:none;stroke:#1AADDC;stroke-linecap:round;stroke-linejoin:round;stroke-miterlimit:10;}
	.st1{opacity:0.1;fill:#1AADDC;enable-background:new    ;}
	.st2{fill:#1AADDC;stroke:#1AADDC;stroke-miterlimit:10;}
	.st3{fill:none;stroke:#1AADDC;stroke-linecap:round;stroke-linejoin:round;stroke-miterlimit:10;stroke-dasharray:2,2;}
</style>
<g>
	<g>
		<rect x="-205.4" y="328.1" class="st0" width="19.3" height="22.7"/>
		<polygon class="st0" points="-192.9,323.2 -192.9,321.1 -198.6,321.1 -198.6,323.2 -206.9,323.2 -206.9,326.6 -184.5,326.6 
			-184.5,323.2 		"/>
		<g>
			<rect x="-202.3" y="331.4" class="st1" width="1.7" height="16.7"/>
			<rect x="-196.6" y="331.4" class="st1" width="1.7" height="16.7"/>
			<rect x="-191" y="331.4" class="st1" width="1.7" height="16.7"/>
		</g>
		<g>
			<rect x="-202.3" y="331.4" class="st0" width="1.7" height="16.7"/>
			<rect x="-196.6" y="331.4" class="st0" width="1.7" height="16.7"/>
			<rect x="-191" y="331.4" class="st0" width="1.7" height="16.7"/>
		</g>
	</g>
	<g>
		<rect x="-317.4" y="255.8" class="st0" width="29" height="17.7"/>
		<rect x="-320" y="273.5" class="st0" width="34.4" height="2.3"/>
		<rect x="-315.9" y="257.2" class="st0" width="26.1" height="15"/>
		<rect x="-315.9" y="257.2" class="st1" width="26.1" height="15"/>
	</g>
	<g>
		<polygon class="st0" points="-308,329.8 -308,328.2 -311.8,328.2 -311.8,329.8 -313.1,329.8 -313.1,346.9 -289.7,346.9 
			-289.7,329.8 		"/>
		<g>
			<circle class="st1" cx="-301.4" cy="338.7" r="4.4"/>
			<circle class="st0" cx="-301.4" cy="338.7" r="4.4"/>
			<circle class="st0" cx="-301.4" cy="338.7" r="6.1"/>
		</g>
	</g>
	<g>
		<rect x="-265.4" y="286.6" class="st0" width="37.9" height="10.2"/>
		<circle class="st0" cx="-231.4" cy="291.7" r="1"/>
		<line class="st0" x1="-263.8" y1="287.9" x2="-256.1" y2="295.7"/>
		<line class="st0" x1="-260.3" y1="287.9" x2="-252.6" y2="295.7"/>
		<line class="st0" x1="-256.8" y1="287.9" x2="-249.1" y2="295.7"/>
		<rect x="-265.4" y="296.8" class="st0" width="37.9" height="10.2"/>
		<circle class="st0" cx="-231.4" cy="301.9" r="1"/>
		<line class="st0" x1="-263.8" y1="298.2" x2="-256.1" y2="305.8"/>
		<line class="st0" x1="-260.3" y1="298.2" x2="-252.6" y2="305.8"/>
		<line class="st0" x1="-256.8" y1="298.2" x2="-249.1" y2="305.8"/>
		<rect x="-265.4" y="306.9" class="st0" width="37.9" height="10.2"/>
		<circle class="st0" cx="-231.4" cy="311.9" r="1"/>
		<circle class="st1" cx="-231.4" cy="291.7" r="1"/>
		<circle class="st1" cx="-231.4" cy="301.9" r="1"/>
		<circle class="st1" cx="-231.4" cy="311.9" r="1"/>
		<line class="st0" x1="-263.8" y1="308.3" x2="-256.1" y2="316"/>
		<line class="st0" x1="-260.3" y1="308.3" x2="-252.6" y2="316"/>
		<line class="st0" x1="-256.8" y1="308.3" x2="-249.1" y2="316"/>
	</g>
	<g>
		<polygon class="st0" points="-188.3,262.9 -203.1,262.9 -200.5,253.2 -191.5,253.2 		"/>
		<polygon class="st1" points="-188.3,262.9 -203.1,262.9 -200.5,253.2 -191.5,253.2 		"/>
		<rect x="-197.4" y="262.9" class="st0" width="3.3" height="2.1"/>
		<line class="st0" x1="-195.7" y1="265" x2="-195.7" y2="286.2"/>
		<line class="st0" x1="-201.4" y1="286.2" x2="-190.6" y2="286.2"/>
		<line class="st0" x1="-190.6" y1="262.9" x2="-190.6" y2="268.1"/>
		<circle class="st2" cx="-190.6" cy="268.4" r="0.4"/>
	</g>
	<g>
		<path class="st0" d="M-238.3,232.1c-0.9-3.5-4.1-6.1-7.8-6.1s-7,2.6-7.8,6.1h-8.7v20.5h33v-20.5H-238.3z M-246,229.3
			c1.9,0,3.7,1.2,4.4,2.8h-8.8C-249.7,230.4-248.1,229.3-246,229.3z"/>
		<rect x="-259.4" y="232.1" class="st1" width="1.6" height="20.5"/>
		<rect x="-234.4" y="232.1" class="st1" width="1.6" height="20.5"/>
		<rect x="-259.4" y="232.1" class="st0" width="1.6" height="20.5"/>
		<rect x="-234.4" y="232.1" class="st0" width="1.6" height="20.5"/>
	</g>
	<g>
		<path class="st0" d="M-240.1,350.1c0,7.6-2,9.8-5.9,9.8s-5.9-2.5-5.9-9.8H-240.1z"/>
		<path class="st1" d="M-240.4,354.2c-0.7,4.2-2.6,5.5-5.6,5.5s-4.9-1.5-5.6-5.7"/>
		<line class="st0" x1="-246" y1="359.9" x2="-246" y2="371.3"/>
		<line class="st0" x1="-249.6" y1="371.3" x2="-242.7" y2="371.3"/>
	</g>
	<line class="st3" x1="-224.9" y1="284.4" x2="-209.2" y2="268.7"/>
	<line class="st3" x1="-283.5" y1="334.9" x2="-267.7" y2="319.1"/>
	<line class="st3" x1="-245.9" y1="280.1" x2="-245.9" y2="257.7"/>
	<line class="st3" x1="-246.2" y1="346.1" x2="-246.2" y2="323.8"/>
	<line class="st3" x1="-225.2" y1="318.6" x2="-209.4" y2="334.4"/>
	<line class="st3" x1="-282.7" y1="268.9" x2="-266.9" y2="284.7"/>
</g>
</svg>
