<?xml version="1.0" encoding="utf-8"?>
<!-- Generator: Adobe Illustrator 19.1.0, SVG Export Plug-In . SVG Version: 6.00 Build 0)  -->
<svg version="1.1" id="Layer_1" xmlns="http://www.w3.org/2000/svg" xmlns:xlink="http://www.w3.org/1999/xlink" x="0px" y="0px"
	 viewBox="-335 221.8 170.8 152.5" style="enable-background:new -335 221.8 170.8 152.5;" xml:space="preserve">
<style type="text/css">
	.st0{fill:none;stroke:#1AADDC;stroke-width:3;stroke-linecap:round;stroke-linejoin:round;stroke-miterlimit:10;}
	.st1{fill:#FFFFFF;stroke:#1AADDC;stroke-width:3;stroke-linecap:round;stroke-linejoin:round;stroke-miterlimit:10;}
	.st2{opacity:0.1;fill:#1AADDC;enable-background:new    ;}
	.st3{fill:#1AADDC;stroke:#1AADDC;stroke-width:3;stroke-linecap:round;stroke-linejoin:round;stroke-miterlimit:10;}
	
		.st4{fill:#FFFFFF;stroke:#1AADDC;stroke-width:3;stroke-linecap:round;stroke-linejoin:round;stroke-miterlimit:10;stroke-dasharray:2,2;}
</style>
<line class="st0" x1="-227.2" y1="304.9" x2="-264.1" y2="272.4"/>
<line class="st0" x1="-225.4" y1="249.9" x2="-173.6" y2="316.3"/>
<line class="st0" x1="-267.8" y1="236.2" x2="-264.1" y2="272.4"/>
<line class="st0" x1="-267.8" y1="236.2" x2="-225.4" y2="249.9"/>
<line class="st0" x1="-173.6" y1="316.3" x2="-264.1" y2="272.4"/>
<line class="st0" x1="-264.1" y1="272.4" x2="-284.1" y2="358.5"/>
<line class="st0" x1="-284.1" y1="358.5" x2="-326.3" y2="282.9"/>
<line class="st0" x1="-326.3" y1="282.9" x2="-292.5" y2="252.5"/>
<line class="st0" x1="-292.5" y1="252.5" x2="-267.8" y2="236.2"/>
<line class="st0" x1="-264.1" y1="272.4" x2="-288" y2="307.6"/>
<line class="st0" x1="-288" y1="307.6" x2="-292.5" y2="252.5"/>
<line class="st0" x1="-288" y1="307.6" x2="-326.3" y2="282.9"/>
<line class="st0" x1="-288" y1="307.6" x2="-284.1" y2="358.5"/>
<line class="st0" x1="-225.4" y1="304.9" x2="-284.1" y2="358.5"/>
<line class="st0" x1="-284.1" y1="358.5" x2="-173.6" y2="316.3"/>
<line class="st0" x1="-284.1" y1="358.5" x2="-284.1" y2="358.5"/>
<line class="st0" x1="-227.2" y1="304.9" x2="-173.6" y2="314.9"/>
<circle class="st1" cx="-267.8" cy="236.2" r="2.9"/>
<circle class="st2" cx="-267.8" cy="236.2" r="2.9"/>
<circle class="st3" cx="-264.1" cy="273.5" r="6.7"/>
<circle class="st4" cx="-288" cy="307.6" r="5.7"/>
<circle class="st4" cx="-292.5" cy="252.5" r="5.7"/>
<circle class="st1" cx="-326.3" cy="282.9" r="5.7"/>
<circle class="st1" cx="-284.1" cy="358.5" r="4.3"/>
<circle class="st1" cx="-225.4" cy="304.9" r="5.7"/>
<circle class="st2" cx="-225.4" cy="304.9" r="5.7"/>
<circle class="st1" cx="-175.2" cy="316.3" r="4"/>
<circle class="st4" cx="-225.4" cy="249.9" r="5.7"/>
</svg>
